# xmcd CD database file
#
# Track frame offsets:
#	150
#	18072
#	34070
#	59400
#	78347
#	95322
#	115205
#
# Disc length: 1764 seconds
#
# Revision: 0
# Processed by: cddbd v1.5PL3 Copyright (c) Steve Scherf et al.
# Submitted via: CDex 1.51
#
DISCID=4906e207
DTITLE=luminousorange - superplastic
DYEAR=2000
DGENRE=Space
TTITLE0=walkblind
TTITLE1=what you've done
TTITLE2=sugarplastic
TTITLE3=tearsofhoney
TTITLE4=chapter 22
TTITLE5=cottooontails
TTITLE6=puppy dog mail
EXTD=YEAR: 2000
EXTT0=
EXTT1=
EXTT2=
EXTT3=
EXTT4=
EXTT5=
EXTT6=
PLAYORDER=
